HIERARCHY
ROOT Hips
{
	OFFSET 0.00000 0.00000 0.00000
	CHANNELS 6 Xposition Yposition Zposition Zrotation Yrotation Xrotation 
	JOINT LHipJoint
	{
		OFFSET 0 0 0
		CHANNELS 3 Zrotation Yrotation Xrotation
		JOINT LeftUpLeg
		{
			OFFSET 1.58895 -1.83665 0.71753
			CHANNELS 3 Zrotation Yrotation Xrotation
			JOINT LeftLeg
			{
				OFFSET 2.50528 -6.88321 0.00000
				CHANNELS 3 Zrotation Yrotation Xrotation
				JOINT LeftFoot
				{
					OFFSET 2.63244 -7.23257 0.00000
					CHANNELS 3 Zrotation Yrotation Xrotation
					JOINT LeftToeBase
					{
						OFFSET 0.23691 -0.65090 1.72750
						CHANNELS 3 Zrotation Yrotation Xrotation
						End Site
						{
							OFFSET 0.00000 -0.00000 0.92561
						}
					}
				}
			}
		}
	}
	JOINT RHipJoint
	{
		OFFSET 0 0 0
		CHANNELS 3 Zrotation Yrotation Xrotation
		JOINT RightUpLeg
		{
			OFFSET -1.51435 -1.83665 0.71753
			CHANNELS 3 Zrotation Yrotation Xrotation
			JOINT RightLeg
			{
				OFFSET -2.54551 -6.99375 0.00000
				CHANNELS 3 Zrotation Yrotation Xrotation
				JOINT RightFoot
				{
					OFFSET -2.66027 -7.30903 0.00000
					CHANNELS 3 Zrotation Yrotation Xrotation
					JOINT RightToeBase
					{
						OFFSET -0.22981 -0.63138 2.03959
						CHANNELS 3 Zrotation Yrotation Xrotation
						End Site
						{
							OFFSET -0.00000 -0.00000 1.07060
						}
					}
				}
			}
		}
	}
	JOINT LowerBack
	{
		OFFSET 0 0 0
		CHANNELS 3 Zrotation Yrotation Xrotation
		JOINT Spine
		{
			OFFSET -0.02651 1.86275 -0.11152
			CHANNELS 3 Zrotation Yrotation Xrotation
			JOINT Spine1
			{
				OFFSET 0.01019 1.86224 0.04087
				CHANNELS 3 Zrotation Yrotation Xrotation
				JOINT Neck
				{
					OFFSET 0 0 0
					CHANNELS 3 Zrotation Yrotation Xrotation
					JOINT Neck1
					{
						OFFSET -0.01926 1.80512 0.08867
						CHANNELS 3 Zrotation Yrotation Xrotation
						JOINT Head
						{
							OFFSET 0.05516 1.76451 -0.38475
							CHANNELS 3 Zrotation Yrotation Xrotation
							End Site
							{
								OFFSET 0.01592 1.82587 -0.14001
							}
						}
					}
				}
				JOINT LeftShoulder
				{
					OFFSET 0 0 0
					CHANNELS 3 Zrotation Yrotation Xrotation
					JOINT LeftArm
					{
						OFFSET 3.47116 1.51376 0.14491
						CHANNELS 3 Zrotation Yrotation Xrotation
						JOINT LeftForeArm
						{
							OFFSET 4.78095 -0.00000 0.00000
							CHANNELS 3 Zrotation Yrotation Xrotation
							JOINT LeftHand
							{
								OFFSET 3.58615 -0.00000 -0.00000
								CHANNELS 3 Zrotation Yrotation Xrotation
								JOINT LeftFingerBase
								{
									OFFSET 0 0 0
									CHANNELS 3 Zrotation Yrotation Xrotation
									JOINT LeftHandIndex1
									{
										OFFSET 0.65981 -0.00000 0.00000
										CHANNELS 3 Zrotation Yrotation Xrotation
										End Site
										{
											OFFSET 0.53196 -0.00000 0.00000
										}
									}
								}
								JOINT LThumb
								{
									OFFSET 0 0 0
									CHANNELS 3 Zrotation Yrotation Xrotation
									End Site
									{
										OFFSET 0.54008 -0.00000 0.54008
									}
								}
							}
						}
					}
				}
				JOINT RightShoulder
				{
					OFFSET 0 0 0
					CHANNELS 3 Zrotation Yrotation Xrotation
					JOINT RightArm
					{
						OFFSET -3.31725 1.61216 0.35156
						CHANNELS 3 Zrotation Yrotation Xrotation
						JOINT RightForeArm
						{
							OFFSET -4.48913 -0.00000 0.00000
							CHANNELS 3 Zrotation Yrotation Xrotation
							JOINT RightHand
							{
								OFFSET -3.70510 -0.00000 0.00000
								CHANNELS 3 Zrotation Yrotation Xrotation
								JOINT RightFingerBase
								{
									OFFSET 0 0 0
									CHANNELS 3 Zrotation Yrotation Xrotation
									JOINT RightHandIndex1
									{
										OFFSET -0.44914 -0.00000 0.00000
										CHANNELS 3 Zrotation Yrotation Xrotation
										End Site
										{
											OFFSET -0.36211 -0.00000 0.00000
										}
									}
								}
								JOINT RThumb
								{
									OFFSET 0 0 0
									CHANNELS 3 Zrotation Yrotation Xrotation
									End Site
									{
										OFFSET -0.36763 -0.00000 0.36763
									}
								}
							}
						}
					}
				}
			}
		}
	}
}
MOTION
Frames: 7
Frame Time: .0083333
-0.7269 18.6042 6.26 0 0 0 0 0 0 -21 0 0 0 0 0 0 0 0 0 0 0 0 0 0 21 0 0 0 0 0 0 0 0 0 0 0 0 0 0 0 0 0 0 0 0 0 0 -16 0 0 21 0 0 11 0 0 0 -8 0 0 0 0 0 0 0 0 0 0 0 0 0 0 0 0 0 0 0 0 8 0 0 0 0 0 0 0 0 0 0 0 0 0 0 0 0 0
-0.7269 18.6042 6.2600 -1.5046 -1.4284 -0.1538 0.0000 0.0000 0.0000 -13.1041 -7.4832 1.3131 1.2546 7.1009 20.0146 1.5833 2.0522 -24.5902 8.4928 -16.4700 -54.3189 0.0000 0.0000 0.0000 15.2833 -0.6059 11.0719 0.0000 -0.0000 0.0000 -1.2136 -4.2782 -22.7548 -0.0557 1.5223 -4.1871 0.2923 0.1702 4.0188 0.1357 0.2513 -2.4956 -0.0441 0.1174 -4.8325 -0.2583 -0.8590 -9.3778 2.9114 -1.7840 21.0221 0.8361 -0.5900 8.0717 0.0000 -0.0000 0.0000 -92.8351 14.6176 22.0444 22.0930 -33.0819 -6.6365 -0.0000 -0.0000 10.4460 4.4298 -26.5659 -1.9843 -7.1250 0.0000 -0.0000 -15.2587 4.1303 14.6597 0.0000 -0.0000 0.0000 92.5896 -18.7735 23.0504 -24.2052 35.3805 -7.8251 0.0000 0.0000 19.8416 -3.6629 -31.6056 1.9215 7.1250 -0.0000 -0.0000 31.5672 -58.7297 -11.3055
-0.7279 18.6024 6.2607 -1.4829 -1.4280 -0.2473 0.0000 0.0000 0.0000 -13.1127 -7.3402 1.3561 1.2553 7.1029 20.0206 1.5761 1.9493 -24.4932 8.4831 -16.4634 -54.2849 0.0000 0.0000 0.0000 15.2560 -0.6307 11.1632 0.0000 0.0000 -0.0000 -1.2115 -4.2815 -22.7389 -0.0577 1.5506 -4.2651 0.2634 0.1676 4.1925 0.1293 0.2462 -2.3986 -0.0345 0.1158 -4.8303 -0.1797 -0.8426 -9.3488 2.9172 -1.7677 20.7418 0.8254 -0.5789 7.9721 -0.0000 0.0000 0.0000 -93.0858 14.4394 20.4858 22.2325 -33.2388 -6.7128 -0.0000 -0.0000 8.9709 3.6908 -26.7411 -1.6625 -7.1250 0.0000 -0.0000 -15.6922 4.0249 15.1421 -0.0000 0.0000 0.0000 92.5972 -18.9560 22.8274 -24.6364 35.8300 -8.0761 0.0000 0.0000 18.6293 -2.6243 -31.2447 1.3619 7.1250 -0.0000 -0.0000 32.2581 -58.1970 -11.1644
-0.7271 18.5993 6.2662 -1.5438 -1.5047 -0.4210 0.0000 0.0000 0.0000 -13.0878 -7.2638 1.5408 1.2621 7.1213 20.0752 1.5827 1.9999 -24.5641 8.4811 -16.4620 -54.2776 0.0000 0.0000 0.0000 15.3179 -0.6083 11.3654 0.0000 -0.0000 0.0000 -1.2119 -4.3167 -22.7615 -0.0625 1.6136 -4.4389 0.3573 0.1899 4.3912 0.1323 0.2824 -2.2309 -0.0875 0.1310 -4.7680 -0.1945 -0.8453 -9.5024 3.0759 -1.7954 20.4805 0.8763 -0.5796 7.9154 -0.0000 0.0000 0.0000 -93.4120 14.1070 17.9152 22.3983 -33.4243 -6.8040 -0.0000 -0.0000 7.6087 1.4870 -26.7977 -0.6705 -7.1250 0.0000 -0.0000 -16.9750 4.1419 16.4580 -0.0000 0.0000 0.0000 92.7126 -19.2101 21.9832 -25.4142 36.6244 -8.5358 0.0000 0.0000 17.3488 -0.8521 -31.0471 0.4395 7.1250 -0.0000 -0.0000 33.7928 -57.6495 -11.3188
-0.7248 18.5949 6.2740 -1.6087 -1.6235 -0.6485 0.0000 0.0000 0.0000 -13.1077 -7.2722 1.8576 1.2673 7.1355 20.1174 1.6021 2.1571 -24.7755 8.4787 -16.4603 -54.2694 0.0000 0.0000 0.0000 15.3823 -0.5642 11.6424 0.0000 0.0000 -0.0000 -1.2134 -4.3317 -22.7822 -0.0636 1.6273 -4.4768 0.5173 0.2404 4.6313 0.1080 0.3598 -2.0245 -0.2096 0.1644 -4.6881 -0.2598 -0.8666 -9.6704 3.3250 -1.8535 20.0824 0.9618 -0.5916 7.8181 0.0000 -0.0000 0.0000 -93.6610 13.7317 14.8718 22.9960 -34.0844 -7.1361 -0.0000 -0.0000 6.3724 -1.8881 -25.3954 0.8100 -7.1250 0.0000 -0.0000 -18.9695 5.6798 18.0411 0.0000 -0.0000 0.0000 92.9659 -19.3508 20.0517 -26.6577 37.8508 -9.2883 0.0000 0.0000 14.1682 4.3412 -31.1770 -2.2505 7.1250 -0.0000 -0.0000 38.7955 -56.6610 -12.3685
-0.7258 18.5933 6.2758 -1.6587 -1.6300 -0.7843 0.0000 0.0000 0.0000 -13.0671 -7.2151 1.9731 1.2722 7.1488 20.1569 1.6045 2.2115 -24.8166 8.5140 -16.4846 -54.3936 0.0000 0.0000 0.0000 15.4425 -0.6023 11.7919 0.0000 0.0000 -0.0000 -1.2113 -4.3502 -22.7750 -0.0593 1.5717 -4.3233 0.6066 0.2756 4.9241 0.1076 0.4142 -1.8853 -0.2661 0.1888 -4.7085 -0.5017 -0.9435 -9.7043 3.7215 -1.9788 19.5347 1.1183 -0.6386 7.6521 -0.0000 0.0000 0.0000 -93.6228 13.2766 11.9277 23.8337 -34.9880 -7.6110 -0.0000 -0.0000 4.9623 -5.3003 -22.7420 2.0540 -7.1250 0.0000 -0.0000 -21.1081 8.3037 19.2289 -0.0000 0.0000 0.0000 93.0385 -19.4591 17.9654 -27.6953 38.8342 -9.9320 0.0000 0.0000 11.8225 5.1782 -30.6658 -2.6464 7.1250 -0.0000 -0.0000 39.1037 -56.0848 -11.9152
-0.7279 18.5947 6.2768 -1.6963 -1.5982 -0.8488 0.0000 0.0000 0.0000 -13.0180 -7.1757 1.9910 1.2769 7.1615 20.1946 1.5966 2.2502 -24.7741 8.5493 -16.5088 -54.5181 0.0000 0.0000 0.0000 15.4889 -0.6559 11.8567 0.0000 -0.0000 0.0000 -1.2063 -4.4030 -22.7634 -0.0598 1.5774 -4.3392 0.6184 0.3093 5.1809 0.1515 0.4637 -1.8051 -0.2331 0.2136 -4.7706 -0.7389 -1.0480 -9.5911 3.9968 -2.1128 18.9372 1.2331 -0.7035 7.4439 -0.0000 -0.0000 0.0000 -93.1968 12.6023 8.8088 24.2323 -35.4090 -7.8408 -0.0000 -0.0000 4.1057 -8.3881 -21.0814 3.0360 -7.1250 0.0000 -0.0000 -23.0509 9.8928 20.5322 -0.0000 -0.0000 0.0000 92.6476 -19.5534 15.9513 -28.4582 39.5347 -10.4141 0.0000 0.0000 9.3463 8.2508 -31.5405 -4.3378 7.1250 -0.0000 -0.0000 42.6928 -56.1354 -13.3684
